<?xml version="1.0" encoding="utf-8"?>
<!-- Generator: Adobe Illustrator 16.0.0, SVG Export Plug-In . SVG Version: 6.00 Build 0)  -->
<!DOCTYPE svg PUBLIC "-//W3C//DTD SVG 1.1//EN" "http://www.w3.org/Graphics/SVG/1.1/DTD/svg11.dtd">
<svg version="1.1"
	 id="svg2" xmlns:cc="http://creativecommons.org/ns#" xmlns:dc="http://purl.org/dc/elements/1.1/" xmlns:svg="http://www.w3.org/2000/svg" xmlns:sodipodi="http://sodipodi.sourceforge.net/DTD/sodipodi-0.dtd" xmlns:inkscape="http://www.inkscape.org/namespaces/inkscape" xmlns:rdf="http://www.w3.org/1999/02/22-rdf-syntax-ns#" sodipodi:docname="Nieuw document 1" inkscape:version="0.48.4 r9939"
	 xmlns="http://www.w3.org/2000/svg" xmlns:xlink="http://www.w3.org/1999/xlink" x="0px" y="0px" width="108px" height="108px"
	 viewBox="0 0 108 108" enable-background="new 0 0 108 108" xml:space="preserve">
<linearGradient id="SVGID_1_" gradientUnits="userSpaceOnUse" x1="41.187" y1="26.75" x2="41.187" y2="81.7505">
	<stop  offset="0" style="stop-color:#FF3057"/>
	<stop  offset="0.37" style="stop-color:#F63493"/>
	<stop  offset="1" style="stop-color:#C827A2"/>
</linearGradient>
<ellipse fill="url(#SVGID_1_)" cx="41.188" cy="54.25" rx="26.562" ry="27.5"/>
<path fill="#FBC933" d="M41.312,10.441c-5.515,0-10.763,0.906-15.709,2.757c-4.985,1.887-9.402,4.682-13.216,8.345
	c-3.813,3.702-6.797,8.271-9.024,13.708C1.132,40.688,0,46.994,0,54.134c0,7.173,1.095,13.48,3.247,18.88
	c2.152,5.438,5.098,9.971,8.875,13.631c3.738,3.664,8.156,6.459,13.179,8.312c5.024,1.849,10.348,2.756,16.012,2.756
	c5.814,0,11.252-0.907,16.35-2.756c5.022-1.853,9.401-4.646,13.067-8.312c3.697-3.66,6.605-8.192,8.685-13.631
	c1.476-3.777,2.455-8.005,2.91-12.647c0.149-1.854,0.225-3.741,0.262-5.739c0-0.149,0-0.304,0-0.491
	c0-7.138-1.094-13.446-3.246-18.883c-2.114-5.438-5.062-10.006-8.838-13.708c-3.735-3.663-8.153-6.458-13.215-8.345
	C52.3,11.348,46.975,10.441,41.312,10.441L41.312,10.441z M16.539,53.301c0-3.967,0.605-7.515,1.851-10.574
	c1.246-3.097,2.908-5.702,5.061-7.778c2.151-2.152,4.644-3.813,7.553-4.909c2.909-1.097,5.967-1.623,9.25-1.623
	c2.229,0,4.229,0.149,6.044,0.415c1.772,0.339,3.323,0.717,4.604,1.094c1.322,0.34,2.382,0.755,3.209,1.171
	c0.874,0.416,1.475,0.716,1.854,0.981l-3.097,8.608c-1.474-0.792-3.173-1.434-5.06-2c-1.854-0.565-3.93-0.869-6.195-0.869
	c-4.945,0-8.531,1.396-10.76,4.153c-2.228,2.758-3.323,6.534-3.323,11.328c0,2.343,0.264,4.456,0.831,6.382
	c0.566,1.924,1.396,3.549,2.492,4.871c1.095,1.359,2.456,2.418,4.118,3.21c1.658,0.72,3.586,1.095,5.776,1.095
	c1.168,0,2.188,0,3.021-0.037c0.869-0.039,1.623-0.149,2.265-0.264V52.014h10.722v23.487c-1.278,0.492-3.32,1.06-6.15,1.625
	c-2.832,0.565-6.346,0.83-10.498,0.83c-3.553,0-6.8-0.531-9.707-1.588c-2.908-1.132-5.361-2.757-7.439-4.832
	c-2.039-2.115-3.625-4.683-4.72-7.741C17.106,60.704,16.539,57.189,16.539,53.301L16.539,53.301z"/>
<g>
	<path fill="#FDAF1B" d="M74.763,27.362L50.537,51.588h6.218c0.234,0,0.425,0.19,0.425,0.425V75.5c0,0.176-0.107,0.334-0.272,0.396
		c-1.421,0.548-3.572,1.116-6.219,1.646c-2.826,0.564-6.287,0.838-10.582,0.838c-3.592,0-6.907-0.542-9.861-1.616
		c-1.148-0.447-2.228-1.003-3.267-1.617L14.181,87.944c3.308,2.845,7.084,5.069,11.267,6.611c4.923,1.812,10.261,2.73,15.865,2.73
		c5.756,0,11.208-0.919,16.203-2.73c4.942-1.822,9.287-4.586,12.916-8.214c3.665-3.629,6.554-8.164,8.587-13.483
		c1.466-3.752,2.436-7.969,2.883-12.527c0.137-1.698,0.22-3.514,0.261-5.705v-0.491c0-7.035-1.082-13.335-3.218-18.729
		C77.807,32.479,76.402,29.797,74.763,27.362z"/>
	<path fill="#FDAF1B" d="M40.747,68.43c1.169,0,2.179,0,3.002-0.037c0.726-0.032,1.353-0.115,1.859-0.197V56.518L34.891,67.234
		c0.085,0.044,0.163,0.094,0.25,0.136C36.76,68.073,38.646,68.43,40.747,68.43z"/>
</g>
<sodipodi:namedview  fit-margin-left="0" bordercolor="#666666" inkscape:cy="22.497132" pagecolor="#ffffff" borderopacity="1.0" fit-margin-top="0" showgrid="false" inkscape:zoom="0.7" inkscape:cx="491.8414" id="base" inkscape:window-height="1018" fit-margin-bottom="0" inkscape:window-maximized="1" inkscape:pageopacity="0.0" inkscape:window-y="-8" inkscape:document-units="px" inkscape:current-layer="g2999" fit-margin-right="0" inkscape:window-x="-8" inkscape:pageshadow="2" inkscape:window-width="1920">
	</sodipodi:namedview>
<linearGradient id="SVGID_2_" gradientUnits="userSpaceOnUse" x1="88.7227" y1="13.293" x2="104.808" y2="29.3783">
	<stop  offset="0" style="stop-color:#FF3057"/>
	<stop  offset="0.37" style="stop-color:#F63493"/>
	<stop  offset="1" style="stop-color:#C827A2"/>
</linearGradient>
<path fill="url(#SVGID_2_)" d="M108,21.353c0-3.624-1.133-6.38-3.438-8.231c-2.301-1.887-4.908-2.831-7.816-2.831
	c-2.869,0-5.477,0.944-7.779,2.831c-2.305,1.852-3.436,4.607-3.436,8.231c0,3.588,1.131,6.346,3.436,8.195
	c2.303,1.851,4.91,2.795,7.779,2.795c2.908,0,5.516-0.946,7.816-2.795C106.867,27.698,108,24.943,108,21.353L108,21.353z"/>
<path fill="#FF9503" d="M57.18,60.695V75.5c0,0.176-0.107,0.334-0.272,0.396c-1.421,0.548-3.571,1.116-6.219,1.646
	c-2.825,0.564-6.286,0.838-10.581,0.838c-0.2,0-0.391-0.02-0.589-0.022L23.926,93.949c0.502,0.211,1.007,0.417,1.522,0.606
	c4.923,1.812,10.261,2.73,15.865,2.73c5.757,0,11.209-0.919,16.203-2.73c4.942-1.822,9.287-4.586,12.916-8.214
	c3.665-3.629,6.554-8.164,8.587-13.483c1.466-3.752,2.436-7.969,2.883-12.527c0.137-1.698,0.22-3.514,0.261-5.705v-0.491
	c0-5.933-0.779-11.336-2.301-16.121L57.18,60.695z"/>
</svg>
